<?xml version="1.0" standalone="no"?>
<!DOCTYPE svg PUBLIC "-//W3C//DTD SVG 20010904//EN"
 "http://www.w3.org/TR/2001/REC-SVG-20010904/DTD/svg10.dtd">
<svg version="1.0" xmlns="http://www.w3.org/2000/svg"
 width="1024.000000pt" height="1536.000000pt" viewBox="0 0 1024.000000 1536.000000"
 preserveAspectRatio="xMidYMid meet">

<g transform="translate(0.000000,1536.000000) scale(0.100000,-0.100000)"
fill="#000000" stroke="none">
<path d="M0 7680 l0 -7680 5120 0 5120 0 0 7680 0 7680 -5120 0 -5120 0 0
-7680z m2127 1559 c326 -43 648 -220 858 -471 127 -151 213 -319 272 -534 25
-93 27 -112 27 -304 l0 -205 -37 -125 c-68 -227 -181 -430 -320 -577 -175
-184 -365 -295 -621 -363 -153 -40 -270 -54 -401 -47 -342 19 -652 154 -885
387 -257 257 -383 567 -382 940 0 173 13 253 67 417 82 246 231 456 440 618
134 103 257 166 418 215 183 54 391 73 564 49z m7241 -130 c3 -43 331 -2170
338 -2191 3 -10 3 -18 0 -18 -3 0 -88 -13 -188 -29 -838 -136 -2035 -321
-2068 -321 l-25 0 -83 583 c-46 320 -118 824 -161 1120 -44 304 -74 537 -68
537 10 0 264 40 1062 166 226 36 509 80 630 100 121 19 283 45 360 58 196 33
200 33 203 -5z m-4196 -1079 c156 -296 365 -688 648 -1215 98 -181 235 -438
305 -570 71 -132 206 -386 302 -564 95 -178 173 -326 173 -328 0 -1 -668 -3
-1485 -3 -817 0 -1485 3 -1485 6 0 4 74 144 164 313 90 168 267 500 394 736
126 237 328 615 449 840 121 226 277 519 348 653 70 133 129 241 130 240 1 -2
27 -50 57 -108z"/>
<path d="M1900 9204 c-186 -16 -314 -45 -450 -101 -345 -142 -618 -451 -723
-818 -43 -147 -50 -214 -44 -394 4 -143 9 -182 36 -285 134 -512 565 -879
1105 -942 79 -9 159 -13 201 -9 269 25 514 110 695 243 100 73 234 210 293
300 116 174 204 402 228 587 35 280 -40 592 -201 839 -62 96 -209 248 -314
328 -87 65 -283 165 -388 197 -135 41 -323 64 -438 55z"/>
<path d="M9250 9083 c-64 -11 -1007 -160 -1470 -233 -637 -99 -620 -96 -624
-101 -2 -2 25 -200 60 -439 35 -239 104 -723 155 -1075 50 -352 92 -641 93
-642 2 -3 762 115 1766 275 342 54 425 70 423 82 -1 8 -75 493 -165 1078
l-163 1062 -25 -1 c-14 -1 -36 -4 -50 -6z"/>
<path d="M5065 7959 c-26 -52 -99 -191 -163 -309 -632 -1180 -1202 -2249
-1202 -2255 0 -3 637 -5 1415 -5 778 0 1415 2 1415 4 0 2 -48 94 -106 203
-141 262 -697 1303 -839 1568 -217 406 -369 691 -421 789 l-52 99 -47 -94z"/>
</g>
</svg>
